<?xml version="1.0" encoding="utf-8"?>
<!-- Generator: Adobe Illustrator 24.1.1, SVG Export Plug-In . SVG Version: 6.00 Build 0)  -->
<svg version="1.1" id="Layer_1" xmlns="http://www.w3.org/2000/svg" xmlns:xlink="http://www.w3.org/1999/xlink" x="0px" y="0px"
	 viewBox="0 0 512 512" style="enable-background:new 0 0 512 512;" xml:space="preserve">
<style type="text/css">
	.st0{fill:#865CD6;}
</style>
<g>
	<path class="st0" d="M256,42.7V0C114.7,0.1,0.1,114.7,0,256c0.1,141.3,114.7,255.9,256,256c141.3-0.1,255.9-114.7,256-256
		C511.9,114.7,397.3,0.1,256,0V42.7v42.7c47.1,0,89.6,19.1,120.6,50c31,31.1,50,73.5,50,120.6c0,47.1-19.1,89.6-50,120.6
		c-31.1,31-73.5,50-120.6,50c-47.1,0-89.6-19.1-120.6-50c-31-31.1-50-73.5-50-120.6c0-47.1,19.1-89.6,50-120.6
		c31.1-31,73.5-50,120.6-50V42.7z"/>
</g>
</svg>
